<?xml version="1.0" encoding="UTF-8"?>
<svg id="Layer_2" data-name="Layer 2" xmlns="http://www.w3.org/2000/svg" viewBox="0 0 136.09 17.09">
  <defs>
    <style>
      .cls-1 {
        fill: #fff;
      }
    </style>
  </defs>
  <g id="Layer_2-2" data-name="Layer 2">
    <g>
      <path class="cls-1" d="m25.81,7.16c.53-2.68,2.3-3.51,4.76-2.97.61.13.85,1.24,1.91.84.46-.17.84-.2.94-.74,0,0,.05.01.05.01l.04-.04c.75-.16,1.5-.31,2.25-.47.22-.04.44-.07.67-.11.1.08.19.15.29.23.68,1.36,1.63-.03,2.43.23.02.04.05.09.07.13.12,1.5.25,3,1.14,4.3-.06.36-.13.72-.19,1.07-.09.61.72,1.49-.53,1.76-.29,0-.58-.02-.87-.03-1.4-.04-2.8-.03-4.19-.14-1.42-.12-1.34.5-.83,1.44h.02s-.03-.01-.03-.01c.06.16.12.32.18.47.05.22.1.43.15.65.17-1.45,1.35-.45,1.97-.81.28,0,.56,0,.84,0,.42-.19.85-.38,1.27-.57.12-.02.24-.05.36-.07.21,0,.42,0,.64,0,.16.02.32.04.48.06.05.03.09.07.14.1.07,0,.13,0,.2.01.04.41.08.82.12,1.22-.02.09-.05.18-.07.27-.77.75-1.55,1.51-2.32,2.26-1.63.85-2.99-.7-4.54-.51-.67.05-1.34.1-2.01.15-1.52.4-3.04.82-4.34-.54-.05-.03-.1-.07-.15-.1,0,0-.01,0-.01,0-2.74-2.84-.93-4.56,1.51-6.13.35.03.61-.04.46-.49.04-.05.09-.1.13-.14.5.56.98.66,1.41-.07.05-.06.1-.13.15-.19.27-.21.54-.43.82-.64-.33-.18-.66-.36-.99-.54-1.11-.28-2.22-.53-2.48,1.1-.34.13-.68.26-1.02.39-.26-.35-.52-.69-.78-1.04.02-.03.02-.06-.01-.08-.01-.09-.03-.18-.04-.27Zm3.34,4.31c-.6.41-1.2.81-1.8,1.22.18.22.32.52.55.63,1.36.66,2.46,0,3.52-.77.06-.31.11-.62.17-.93-.82-.05-1.63-.1-2.45-.15Zm8.18-2.06c.07-.06.38-.22.37-.36-.12-3.12-2.62-1.78-4.19-2.19-.1-.03-.38.18-.37.25.34,2.48,2.49,1.84,4.19,2.31Z"/>
      <path class="cls-1" d="m92.22,4.57c.1-1.07.03-3.03.31-3.08,2.91-.52,6.04-2.26,8.64.78.37.44.78.85,1.16,1.28.01.04.02.08.04.12.07.21.14.43.21.64.05.74.11,1.48.16,2.22-.17.96-.34,1.92-.51,2.89-.28.19-.54.44-.84.58-1.93.89-4.04.6-6.07.9-1,1.28.56,2.54.02,3.84-.18.44-.02,1.33-.21,1.39-.75.23-1.59.26-2.17-.5-.13-.66-.27-1.32-.4-1.98-.12-3.02-.23-6.05-.35-9.07Zm7.96,1.21c-.03-.08-.06-.16-.09-.24-.94-2.85-3.24-1.48-5.06-1.62-.11.06-.3.12-.3.18-.08,2.29-.04,4.37,3.35,3.66,1.12-.23,2.16-.05,2.1-1.6,0-.13,0-.26,0-.38Z"/>
      <path class="cls-1" d="m2.92,11.04c-.06,1-.07,2-.19,2.98-.07.58.36,1.45-.64,1.62-1.4.24-1.77-.7-1.81-1.8C.15,9.72,0,5.58,0,1.45,0,.23,1.38.5,2.06.41,4.92.05,8.1-.81,10.14,2.02c.69.96.17,2.78.22,4.2.01.42.05.85.07,1.27-.36,1.15-1.2,1.76-2.29,2.1-1.14.1-2.31.08-3.4.36-.64.16-1.99-.49-1.82,1.1Zm4.81-4.76c.13-.95.6-1.93-.32-2.76-1.52-.61-3.03-.53-4.55.02-1.2.29.05.73-.03,1.14-.2,1.09-.73,2.65,1.17,2.75,1.3.07,2.82.3,3.72-1.15Z"/>
      <path class="cls-1" d="m123.32,3.06c-.61-2.62,1.89-.87,2.5-1.78.54.43-.09.82-.05,1.24.09,1.04.14,2.09.21,3.14,0,.96,0,1.92,0,2.88.04.83.08,1.66.12,2.49l.26,2.33c-.74.96,2.08,3.8-1.67,3.16-.26-.04-.58-.18-.76-.08-2.83,1.56-4.29-.19-5.61-2.28-1.09-1.85-1.23-3.82-.74-5.88.92-1.71,1.67-4.07,4.14-3.2,1.37.48,1.97,1.42,1.58-.81,0-.4.01-.8.02-1.2Zm-3.41,8.28c.03.55.06,1.1.1,1.65-.14.69.37.83.84,1.01.83,1.2,1.55-.58,2.35-.08-.07-.36.76-.48.26-.96.85-1.76.46-3.43-.57-4.91-.29-.42-1.18-.42-1.8-.61-1.66.92-1.17,2.49-1.17,3.91Z"/>
      <path class="cls-1" d="m20.52,15.65c-.46.08-.91.16-1.37.24-1.16-1.12-2.05.03-3.03.36-1.07-.2-2.14-.41-3.2-.61-1.91-2.03-2.08-4.03.11-5.98.25-.09.5-.18.74-.27.22-.06.43-.11.65-.17l1.34-.68c.1.02.2.03.3.05.49.13,1.02.65,1.47.01.18-.24.49-.67-.11-.9.12-.56-.26-.85-.66-.77-.86.17-1.91-.6-2.59.48-.32.29-.59.67-.96.84-.24.11-.82.02-.92-.15-.55-.99-.34-1.94.36-2.8,1.35-1.29,3.09-1.07,4.69-1.05,3.56.05,2.13,3.1,2.74,4.89.25.73.13,1.59.18,2.39.09,1.38.18,2.75.26,4.13Zm-5.04-2.44c.22-.09.44-.18.67-.27,1.33.57,1.67-.18,1.74-1.29-.06-.19-.11-.55-.19-.55-1.07-.09-2.06.13-2.94.79-.24.09-.69.21-.68.25.08.4.13.89.4,1.15.15.15.66-.04,1.01-.08Z"/>
      <path class="cls-1" d="m116.37,13.41c.12.59.35,1.18.34,1.77-.03,1.3-.33,2.36-1.96,1.24-.17-.11-.53-.36-.57.17-2.59.88-4.86.76-6.34-1.95-.22-1.24-.06-2.42.61-3.5.09-.09.18-.19.27-.28.03-.03.06-.07.09-.1,0,0,.03-.03.03-.03,1.21-.43,2.25-1.25,3.61-1.43.34-.05,1.13.76,1.29-.27,0-.25,0-.5-.01-.74-.48-1.17-1.4-.76-2.24-.62-.21.08-.42.16-.63.23-.08.01-.16.02-.24.03-.41-.06-.57.11-.45.51-.39.31-.77.62-1.16.92-.76-.27-.92-.94-1.1-1.61.04-.08.09-.17.13-.25.59-.98,1.15-2.09,2.36-2.35,1.31-.28,2.82-.73,3.95-.31.83.31,1.18,1.9,1.75,2.92.1,1.88.2,3.77.3,5.65Zm-5.53-.83c-.18.55-.46,1.1-.48,1.66,0,.18.87.64.97.55.85-.75,2.26-.72,2.72-1.97-.64-1.84-1.75-.64-2.71-.41-.17.06-.33.11-.5.17Z"/>
      <path class="cls-1" d="m134.12,10.26c.22.32.46.28.86.28,1.87-.03,0,1.4.77,2.19.85.89-.04,2.28-.85,3.26-.62.3-1.21.73-1.86.87-2.47.51-4.29-.53-5.62-2.58-.03-.09-.06-.17-.09-.26,0-.12-.02-.24-.03-.37,0-.17-.01-.34-.02-.51.29-.76.84-.24,1.28-.27.81.38,1.6.85,2.45,1.11.68.21,1.5.79,2.14.05.29-.34.29-.96-.32-1.26-1.43-.96-3.42-.69-4.64-2.12-.08-.08-.17-.15-.25-.23,0,0-.01-.01-.01-.01-.18-.46-.36-.91-.54-1.37-.03-.09-.05-.17-.08-.26v-.87c0-.53.02-1.07.04-1.6.03-.03.07-.06.1-.1,1.68-1.09,3.33-2.65,5.47-1.28.79.5,1.31,1.53,1.75,2.42.19.39.47,1.14-.25,1.55-.07-.04-.14-.08-.21-.12-.05-.02-.09-.04-.14-.05-1.09.04-1.32-1.54-2.51-1.31-.85-.01-1.9-.27-1.49,1.23.15.15.29.3.44.45.8.2,1.61.4,2.41.6.4.18.79.37,1.19.55Z"/>
      <path class="cls-1" d="m84.76,9.98c1.98,1.75,3.49,3.58.98,6.05-1.81,1.4-3.7,1.09-5.61.24-1.03-.94-2.28-2.09-1.16-3.37.49-.56,1.97.6,2.99.96.56.19,1.94,1.64,2.25-.45.04-.12.09-.25.13-.37-.03-.05-.06-.1-.09-.15-.85-.52-1.65-1.19-2.76-.98-2.89-.76-3.45-2.84-3.08-5.44,1.71-1.11,3.23-3.09,5.61-1.33,1.17.86,2.02,1.93,1.84,3.51,0,.07-.26.12-.39.17-.87-.46-1.74-.92-2.61-1.38-.58.2-1.5-.6-1.73.6,0,.15-.04.41.02.43,1.2.52,2.41,1.01,3.62,1.51Z"/>
      <path class="cls-1" d="m67.35,15.03c.12,1.4-.19,2.18-1.73,1.23-.22-.37-.45-.74-.67-1.1,0-.05-.01-.09-.02-.14-.06-1.64-.12-3.27-.17-4.91,0-.15,0-.29-.01-.44-.07-.74.37-1.74-.47-2.12-.56-.26-1.38.05-2.08.1-.11.13-.23.27-.34.4-1.31,1.73.63,3.29.25,5.02-.25,1.12-.27,2.37-1.09,3.18-.4.39-1.28.05-1.59-.72-.15-1.91-.3-3.83-.45-5.74-.07-1.12-.15-2.24-.22-3.35,1.04-.78,1.31-2.82,3.31-2.01.2.45.5.42.84.17.12-.04.24-.08.36-.11.12-.06.23-.13.35-.19.16-.07.31-.15.47-.22.18.02.36.05.54.07.3.29.6.58.9.87-.02.09-.03.18-.05.26h.32c.12.1.24.19.36.28.63.65,1.74,1.07,1.14,2.33-.04.14-.08.28-.13.41.03.23.05.46.08.7l-.03.04.04.02s0,.08.02.11l.09,2.13c0,1.25,0,2.5-.01,3.75Z"/>
      <path class="cls-1" d="m49.29,13.03c0,.33-.02.67-.03,1-.54.67-1.09,1.33-1.63,2-3,.8-5.46.27-6.92-2.77-.04-.33-.09-.66-.13-.98.53-.04,1.05-.08,1.58-.12.58.18.94,1.09,1.74.52.17.15.35.3.52.44-.03,0-.06,0-.09-.01.09.26.18.52.27.78.07-.1.14-.21.22-.31.19-.02.38-.04.58-.06.1-.02.19-.04.29-.06.32-.27.63-.54.95-.8-.83-.46-1.67-.93-2.5-1.39-1.63-.8-3.58-1.34-3-3.86-.02.03-.04.05-.06.08.03,0,.05.01.08.02,0-.05-.01-.1-.02-.15.02-.17.04-.34.05-.52.11-1.61,1.13-2.34,2.58-2.56,2.04-.31,3.73.2,4.69,2.21.05.47.11.93.16,1.4-.09.72-.57.71-1.11.61-.04-.03-.08-.06-.11-.1-.09-.04-.19-.07-.28-.11-.41-.35-.83-.71-1.24-1.06-.6-.5-1.22-.55-1.85-.05-.03.03-.05.06-.08.09-.02.03-.05.07-.07.1-.39.36-.6.77.05,1.02,1.27.5,2.57.93,3.86,1.39.46.69.92,1.37,1.38,2.06.04.39.08.78.13,1.18Z"/>
      <path class="cls-1" d="m54.19,6.04c0,.1,0,.2,0,.3-.02.18-.03.36-.05.53-.1.14-.19.28-.29.42-.42.25-1.55-.51-1.3.47.6,2.43-.17,5.23,1.88,7.28l-.03.38c0,.24,0,.48,0,.73-.1.09-.2.18-.29.27-1.79.32-2.85-.57-3.5-2.13-.09-1.71-.18-3.41-.27-5.12.42-1.21-.62-1.81-1.12-2.63.43-1.44.8-2.9,1.34-4.3.12-.31.82-.6,1.23-.57.89.07,1.23,1.28,1.12,1.57-.56,1.49,1.02,1.83,1.29,2.82Z"/>
      <path class="cls-1" d="m24.42,15.15c-.26.21-.51.43-.77.64-.13.04-.25.08-.38.11-.16,0-.33-.01-.49-.02-.32-.48-.86-.93-.92-1.44-.23-2.03-.31-4.07-.45-6.11,0-.01.03-.03.02-.04,0-.03-.02-.06-.03-.09.02-.27.05-.54.07-.81-.02-.27-.04-.54-.06-.82-.02-.38-.04-.77-.06-1.15,0-.49,0-.99,0-1.48-.03-.1-.07-.21-.1-.31,0-.05-.01-.11-.02-.16.28-.92-.55-2.1.39-2.79.55-.4,1.14.25,1.62.71.72.69.53,1.6.65,2.42.18,1.3.25,2.62.37,3.92.05.11.11.22.16.33-.01.01-.04.03-.04.03.02.03.03.05.05.07,0,.07.01.14.02.22,0,.21.02.43.03.64-.04.1-.08.21-.12.31l-.19.31c.08,1.83.15,3.67.23,5.5Z"/>
      <path class="cls-1" d="m104.07,12.01c0-.07,0-.14,0-.21-.03-.22-.06-.44-.09-.65,0-.42-.02-.84-.03-1.26.02-.03.02-.06,0-.09-.05-1.22-.09-2.43-.14-3.65-.07-1.27-.16-2.54-.2-3.82,0-.23.16-.63.3-.66.87-.18,1.97-.02,2.05.87.25,2.77.21,5.57.32,8.36.04,1,.16,1.99.24,2.99-.6.88.45,1.48.38,2.27-1.76.76-2.56.03-2.7-1.73-.05-.81-.09-1.61-.14-2.42Z"/>
      <path class="cls-1" d="m57.52,8.16c.2,2.4.4,4.8.58,7.2.01.17-.15.35-.23.53-.78.15-1.5.06-2.1-.51-.05-.08-.11-.16-.16-.24-.08-1.04-.16-2.08-.24-3.11-.12-2.08-.25-4.16-.37-6.24,1.55-1.13-.09-2.19-.06-3.29.02-.71-.6-1.6.51-2.03.37-.14.77-.28,1.03.2.52.98,1.77,1.81.84,3.11-.47.66-.5,1.22-.14,1.88.12.84.24,1.67.36,2.51Z"/>
      <path class="cls-1" d="m68.78,10.58c.57-.28,1.15-.56,1.72-.84,1.01-.37,1.8-1.43,3.1-.97.25.09.78.02.85-.13.13-.3.03-.7.03-1.05-.67-1.36-1.9-.42-2.84-.67-.12-.03-.36.4-.54.61-.29.37-.46.91-1.1.78-.64.16-.83-.3-1.03-.74-.02-.32-.04-.64-.05-.96.81-1.26,1.6-2.31,3.43-2.32,2.53-.01,4.91-.22,4.66,3.41,0,.01.07.03.11.05-.2,2.44.1,4.84.5,7.25.04.26-.33.59-.51.89-.24,0-.48,0-.72,0-.96-.63-1.86-.66-2.68.24-2.32,1.29-5.1-.39-5.33-3.22-.03-.13-.05-.27-.08-.4.17-.64.33-1.28.5-1.93Zm2.38,2.7c-.14.78.36.96.97,1.1,1.27.29.48-.92.92-1.23,1.03.11,1.79-.13,1.79-1.37-.05-.23-.14-.67-.16-.67-.78.13-1.54.29-2.31.45-.32.32-.65.65-.97.97-.04,0-.06.03-.06.06-.06.23-.11.45-.17.68Z"/>
    </g>
  </g>
</svg>